# 3ds Max Wavefront OBJ Exporter v0.99 - (c)2007 guruware
# File Created: 22.06.2020 03:43:59

mtllib rotateCube.mtl

#
# object Shape001
#

v  -56.22798 101.67325 -18.16141
v  -56.22797 44.57720 38.93462
v  -56.87166 43.78885 38.14627
v  -56.87166 100.64929 -18.71415
v  -56.22798 103.22723 -17.89478
v  -56.22797 45.48750 39.84492
v  -56.87166 104.89486 -17.98573
v  -56.87166 46.27585 40.63327
v  -57.98655 106.22929 -18.40986
v  -57.98655 46.73100 41.08842
v  -59.27391 106.87299 -19.05354
v  -59.27391 46.73100 41.08842
v  -60.38880 106.65343 -19.74430
v  -60.38880 46.27585 40.63327
v  -61.03249 105.62949 -20.29704
v  -61.03248 45.48750 39.84492
v  -61.03249 104.07550 -20.56366
v  -61.03248 44.57720 38.93462
v  -60.38880 102.40787 -20.47272
v  -60.38880 43.78885 38.14628
v  -59.27391 101.07343 -20.04859
v  -59.27391 43.33370 37.69112
v  -57.98655 100.42975 -19.40490
v  -57.98655 43.33370 37.69112
v  -0.65491 62.37715 -57.45749
v  -1.76980 61.68639 -57.67704
v  0.63245 63.02083 -58.10117
v  1.74734 63.44497 -59.43561
v  2.39102 63.53590 -61.10323
v  2.39102 63.26928 -62.65722
v  1.74734 62.71654 -63.68117
v  0.63245 62.02579 -63.90071
v  -0.65491 61.38210 -63.25703
v  -1.76980 60.95797 -61.92260
v  -2.41348 60.86703 -60.25497
v  -2.41348 61.13365 -58.70098
v  -0.65491 6.80407 -1.88443
v  -1.76980 6.58452 -2.57518
v  0.63245 6.16039 -1.24074
v  1.74734 4.82595 -0.81661
v  2.39102 3.15832 -0.72567
v  2.39102 1.60434 -0.99229
v  1.74734 0.58039 -1.54503
v  0.63245 0.36084 -2.23579
v  -0.65491 1.00452 -2.87947
v  -1.76980 2.33896 -3.30361
v  -2.41348 4.00659 -3.39454
v  -2.41348 5.56057 -3.12792
v  -57.98754 46.76131 37.66081
v  -59.80260 46.69035 37.73178
v  -56.34468 46.36900 38.05312
v  -55.31424 45.61854 38.80358
v  -55.17231 44.71101 39.71111
v  -55.95692 43.88958 40.53254
v  -57.45785 43.37436 41.04776
v  -59.27291 43.30339 41.11874
v  -60.91577 43.69570 40.72643
v  -61.94622 44.44616 39.97596
v  -62.08815 45.35369 39.06843
v  -61.30354 46.17513 38.24700
v  -0.01124 87.75676 78.65627
v  -0.01124 88.96924 80.01067
v  -0.01124 86.20277 77.88689
v  -0.01124 84.72367 77.90872
v  -0.01124 83.71578 78.71588
v  -0.01124 83.44916 80.09213
v  -0.01124 83.99525 81.66866
v  -0.01124 85.20773 83.02307
v  -0.01124 86.76172 83.79245
v  -0.01124 88.24081 83.77061
v  -0.01124 89.24870 82.96344
v  -0.01124 89.51532 81.58720
v  56.20551 47.01047 38.32197
v  56.84919 48.03441 38.87471
v  56.20551 45.45648 38.05535
v  56.84919 43.78885 38.14629
v  57.96408 42.45441 38.57042
v  59.25144 41.81073 39.21411
v  60.36633 42.03028 39.90486
v  61.01001 43.05422 40.45760
v  61.01001 44.60821 40.72422
v  60.36633 46.27584 40.63329
v  59.25144 47.61028 40.20915
v  57.96407 48.25396 39.56546
v  56.20551 102.58354 -17.25109
v  56.84918 103.13629 -16.22714
v  56.20551 102.31693 -18.80507
v  56.84918 102.40787 -20.47271
v  57.96407 102.83199 -21.80714
v  59.25144 103.47568 -22.45082
v  60.36633 104.16643 -22.23128
v  61.01000 104.71918 -21.20732
v  61.01001 104.98579 -19.65334
v  60.36633 104.89485 -17.98571
v  59.25143 104.47072 -16.65127
v  57.96407 103.82704 -16.00760
v  0.63244 141.87964 22.04499
v  1.74733 142.09918 22.73574
v  -0.65492 142.52332 21.40131
v  -1.76982 143.85776 20.97718
v  -2.41349 145.52539 20.88624
v  -2.41349 147.07938 21.15286
v  -1.76981 148.10332 21.70560
v  -0.65493 148.32288 22.39635
v  0.63244 147.67918 23.04004
v  1.74733 146.34476 23.46417
v  2.39101 144.67712 23.55511
v  2.39101 143.12314 23.28849
v  0.63245 84.78360 79.14102
v  1.74733 85.23874 79.59616
v  -0.65492 84.78359 79.14102
v  -1.76981 85.23875 79.59618
v  -2.41349 86.02708 80.38452
v  -2.41349 86.93739 81.29482
v  -1.76981 87.72574 82.08316
v  -0.65492 88.18089 82.53831
v  0.63244 88.18089 82.53831
v  1.74733 87.72574 82.08316
v  2.39101 86.93739 81.29482
v  2.39101 86.02708 80.38451
v  60.13072 43.07616 39.19217
v  1.51174 1.62627 -2.25772
v  1.74734 2.33896 -3.30360
v  60.36633 43.78885 38.14629
v  59.48705 42.88763 40.29100
v  0.86806 1.43774 -1.15889
v  58.60776 43.27378 41.14836
v  -0.01123 1.82389 -0.30154
v  57.72847 44.13113 41.53450
v  -0.89051 2.68124 0.08461
v  57.08479 45.22996 41.34597
v  -1.53419 3.78007 -0.10392
v  56.84919 46.27584 40.63328
v  -1.76980 4.82595 -0.81661
v  57.08479 46.98853 39.58740
v  -1.53419 5.53864 -1.86249
v  57.72847 47.17706 38.48857
v  -0.89051 5.72717 -2.96132
v  58.60776 46.79092 37.63121
v  -0.01123 5.34103 -3.81868
v  59.48705 45.93356 37.24507
v  0.86806 4.48367 -4.20482
v  60.13072 44.83473 37.43360
v  1.51174 3.38484 -4.01629
v  60.13072 101.69518 -19.42682
v  1.51173 60.24529 -60.87672
v  1.74734 60.95797 -61.92260
v  60.36633 102.40786 -20.47271
v  59.48704 101.50664 -18.32799
v  0.86805 60.05675 -59.77789
v  58.60775 101.89279 -17.47064
v  -0.01123 60.44290 -58.92053
v  57.72847 102.75014 -17.08450
v  -0.89052 61.30025 -58.53439
v  57.08479 103.84897 -17.27303
v  -1.53420 62.39908 -58.72292
v  56.84918 104.89485 -17.98571
v  -1.76980 63.44497 -59.43560
v  57.08479 105.60754 -19.03159
v  -1.53420 64.15765 -60.48149
v  57.72847 105.79607 -20.13042
v  -0.89052 64.34618 -61.58032
v  58.60775 105.40993 -20.98778
v  -0.01123 63.96004 -62.43767
v  59.48704 104.55258 -21.37392
v  0.86805 63.10268 -62.82382
v  60.13072 103.45374 -21.18539
v  1.51173 62.00385 -62.63529
v  1.51172 143.14507 22.02306
v  -57.10727 101.69518 -19.42684
v  -56.87166 102.40787 -20.47272
v  1.74733 143.85776 20.97717
v  0.86804 142.95654 23.12189
v  -57.75095 101.50665 -18.32800
v  -0.01124 143.34268 23.97924
v  -58.63023 101.89279 -17.47065
v  -0.89053 144.20004 24.36539
v  -59.50952 102.75014 -17.08451
v  -1.53421 145.29887 24.17686
v  -60.15320 103.84898 -17.27304
v  -1.76981 146.34476 23.46417
v  -60.38880 104.89486 -17.98573
v  -1.53421 147.05743 22.41829
v  -60.15320 105.60754 -19.03161
v  -0.89053 147.24597 21.31946
v  -59.50952 105.79608 -20.13044
v  -0.01124 146.85982 20.46210
v  -58.63023 105.40993 -20.98779
v  0.86804 146.00247 20.07596
v  -57.75095 104.55258 -21.37394
v  1.51172 144.90364 20.26449
v  -57.10727 103.45375 -21.18541
# 192 vertices

vn 0.98096 -0.13733 -0.13733
vn 0.96593 -0.18301 -0.18301
vn 0.70711 -0.50000 -0.50000
vn 0.82311 0.22606 0.52095
vn 0.96593 0.18301 0.18301
vn 0.65797 0.57661 0.48436
vn 0.70711 0.50000 0.50000
vn 0.38810 0.84320 0.37201
vn 0.25882 0.68301 0.68301
vn -0.33853 0.66536 0.66536
vn -0.25882 0.68301 0.68301
vn -0.70711 0.50000 0.50000
vn -0.94096 0.23938 0.23938
vn -0.96593 0.18301 0.18301
vn -0.85928 -0.03884 -0.51002
vn -0.96593 -0.18301 -0.18301
vn -0.75022 -0.41913 -0.51138
vn -0.70711 -0.50000 -0.50000
vn -0.52821 -0.72947 -0.43458
vn -0.25882 -0.68301 -0.68301
vn 0.19422 -0.69364 -0.69364
vn 0.25882 -0.68301 -0.68301
vn 0.39337 -0.30943 0.86574
vn -0.00000 -0.70711 0.70711
vn 0.00000 -0.70711 0.70711
vn 0.52821 0.43458 0.72947
vn 0.75022 0.51138 0.41913
vn 0.85928 0.51002 0.03884
vn 0.30121 0.85273 -0.42675
vn -0.00000 0.70711 -0.70711
vn -0.30121 0.42675 -0.85273
vn -0.38810 -0.37201 -0.84320
vn -0.65797 -0.48436 -0.57661
vn -0.82311 -0.52095 -0.22606
vn -0.39337 -0.86574 0.30943
vn 0.12338 0.96367 0.23687
vn -0.19422 0.69364 0.69364
vn 0.52856 0.72957 0.43399
vn 0.75055 0.41922 0.51081
vn 0.85957 0.03891 0.50953
vn 0.94096 -0.23938 -0.23938
vn 0.33853 -0.66536 -0.66536
vn -0.38782 -0.84312 -0.37248
vn -0.65765 -0.57652 -0.48489
vn -0.82278 -0.22597 -0.52150
vn -0.98096 0.13733 0.13733
vn 0.04030 0.70702 -0.70605
vn 0.00069 0.70661 -0.70760
vn -0.33707 0.66616 -0.66530
vn 0.44160 0.63490 -0.63395
vn 0.65496 0.72891 0.19932
vn 0.69119 0.34378 0.63566
vn 0.57153 -0.57980 0.58068
vn 0.30212 -0.42693 0.85232
vn 0.15506 -0.69810 0.69901
vn 0.00065 -0.70757 0.70664
vn -0.22422 -0.68867 0.68953
vn -0.30081 -0.85325 0.42601
vn -0.60506 -0.56263 0.56335
vn -0.67994 -0.67625 -0.28350
vn -0.69975 -0.38770 -0.60003
vn -0.71498 0.49472 -0.49402
vn -0.39239 0.30937 -0.86621
vn 0.00316 0.67800 -0.73506
vn -0.24605 0.84846 -0.46858
vn 0.11989 0.37194 -0.92048
vn 0.65556 -0.19852 -0.72858
vn 0.69185 -0.63529 -0.34314
vn 0.49621 -0.85463 0.15288
vn 0.06781 -0.77984 0.62229
vn 0.00276 -0.53059 0.84763
vn -0.35305 -0.20014 0.91394
vn -0.67934 0.28416 0.67657
vn -0.69911 0.60042 0.38827
vn -0.58161 0.81342 0.00910
vn -0.85067 0.27567 -0.44763
vn -0.18685 0.55502 -0.81058
vn -0.50174 0.15075 -0.85178
vn -0.65953 -0.57703 -0.48172
vn -0.65195 -0.19936 -0.73158
vn -0.58097 -0.01638 -0.81376
vn -0.85127 -0.28430 -0.44103
vn -0.26594 -0.72087 -0.64001
vn -0.70188 -0.44526 -0.55598
vn -0.50420 -0.85108 0.14644
vn -0.63453 -0.75879 -0.14700
vn -0.63377 -0.75986 -0.14472
vn -0.50152 -0.85182 0.15123
vn -0.18788 -0.81119 0.55378
vn -0.39531 -0.86795 0.30065
vn -0.39402 -0.86789 0.30251
vn -0.18526 -0.80996 0.55645
vn 0.80706 -0.43363 0.40077
vn 0.17934 -0.55224 0.81417
vn 0.49454 -0.14886 0.85631
vn 0.74877 0.41874 0.51381
vn 0.68257 0.28299 0.67381
vn 0.58770 0.01408 0.80896
vn 0.96152 0.14741 0.23184
vn 0.51244 0.67969 0.52482
vn 0.70792 0.44150 0.55129
vn 0.49974 0.85481 -0.13988
vn 0.64165 0.75300 0.14588
vn 0.64020 0.75495 0.14211
vn 0.49852 0.85519 -0.14186
vn 0.18277 0.81569 -0.54886
vn 0.40540 0.86379 -0.29920
vn 0.40177 0.86380 -0.30403
vn 0.18076 0.81487 -0.55074
vn -0.82311 -0.52095 -0.22605
vn 0.85929 0.51002 0.03883
vn -0.85929 -0.03883 -0.51002
vn 0.82311 0.22605 0.52095
vn 0.61237 -0.78657 -0.07946
vn 0.35355 -0.86237 0.36237
vn -0.35355 -0.36237 0.86237
vn -0.61237 0.07946 0.78657
vn -0.61237 0.78657 0.07946
vn -0.35355 0.86237 -0.36237
vn 0.35355 0.36237 -0.86237
vn 0.61237 -0.07946 -0.78657
# 121 vertex normals

o Shape001
g Shape001
usemtl 03___Default
s 20
f 1//1 2//2 3//3 
f 3//3 4//3 1//1 
s 12
f 5//4 6//5 2//2 
f 2//2 1//1 5//4 
s 237
f 7//6 8//7 6//5 
f 6//5 5//4 7//6 
s 244
f 9//8 10//9 8//7 
f 8//7 7//6 9//8 
s 20
f 11//10 12//11 10//9 
f 10//9 9//8 11//10 
f 13//12 14//12 12//11 
f 12//11 11//10 13//12 
s 4
f 15//13 16//14 14//12 
f 14//12 13//12 15//13 
s 12
f 17//15 18//16 16//14 
f 16//14 15//13 17//15 
s 253
f 19//17 20//18 18//16 
f 18//16 17//15 19//17 
s 244
f 21//19 22//20 20//18 
f 20//18 19//17 21//19 
s 20
f 23//21 24//22 22//20 
f 22//20 21//19 23//21 
f 4//3 3//3 24//22 
f 24//22 23//21 4//3 
s 2
f 25//23 1//23 4//24 
f 4//24 26//25 25//23 
s 34
f 27//26 5//4 1//23 
f 1//23 25//23 27//26 
s 1008
f 28//27 7//6 5//4 
f 5//4 27//26 28//27 
s 978
f 29//28 9//8 7//6 
f 7//6 28//27 29//28 
s 2
f 30//29 11//29 9//8 
f 9//8 29//28 30//29 
f 31//30 13//30 11//29 
f 11//29 30//29 31//30 
f 32//31 15//31 13//30 
f 13//30 31//30 32//31 
s 50
f 33//32 17//15 15//31 
f 15//31 32//31 33//32 
s 1008
f 34//33 19//17 17//15 
f 17//15 33//32 34//33 
s 962
f 35//34 21//19 19//17 
f 19//17 34//33 35//34 
s 2
f 36//35 23//35 21//19 
f 21//19 35//34 36//35 
f 26//25 4//24 23//35 
f 23//35 36//35 26//25 
s 4
f 37//36 25//37 26//12 
f 26//12 38//12 37//36 
s 20
f 39//38 27//26 25//37 
f 25//37 37//36 39//38 
s 856
f 40//39 28//27 27//26 
f 27//26 39//38 40//39 
s 844
f 41//40 29//28 28//27 
f 28//27 40//39 41//40 
s 4
f 42//41 30//41 29//28 
f 29//28 41//40 42//41 
f 43//3 31//3 30//41 
f 30//41 42//41 43//3 
f 44//42 32//42 31//3 
f 31//3 43//3 44//42 
s 196
f 45//43 33//32 32//42 
f 32//42 44//42 45//43 
s 968
f 46//44 34//33 33//32 
f 33//32 45//43 46//44 
s 780
f 47//45 35//34 34//33 
f 34//33 46//44 47//45 
s 4
f 48//46 36//46 35//34 
f 35//34 47//45 48//46 
f 38//12 26//12 36//46 
f 36//46 48//46 38//12 
s 251
f 49//47 37//36 38//48 
f 38//48 50//49 49//47 
s 234
f 51//50 39//38 37//36 
f 37//36 49//47 51//50 
s 72
f 52//51 40//39 39//38 
f 39//38 51//50 52//51 
s 74
f 53//52 41//40 40//39 
f 40//39 52//51 53//52 
s 10
f 54//53 42//54 41//40 
f 41//40 53//52 54//53 
s 19
f 55//55 43//56 42//54 
f 42//54 54//53 55//55 
s 59
f 56//57 44//58 43//56 
f 43//56 55//55 56//57 
s 826
f 57//59 45//43 44//58 
f 44//58 56//57 57//59 
s 776
f 58//60 46//44 45//43 
f 45//43 57//59 58//60 
s 266
f 59//61 47//45 46//44 
f 46//44 58//60 59//61 
s 10
f 60//62 48//63 47//45 
f 47//45 59//61 60//62 
s 115
f 50//49 38//48 48//63 
f 48//63 60//62 50//49 
s 240
f 61//64 49//47 50//49 
f 50//49 62//65 61//64 
s 489
f 63//66 51//50 49//47 
f 49//47 61//64 63//66 
s 257
f 64//67 52//67 51//50 
f 51//50 63//66 64//67 
f 65//68 53//68 52//67 
f 52//67 64//67 65//68 
s 1
f 66//69 54//53 53//68 
f 53//68 65//68 66//69 
s 17
f 67//70 55//55 54//53 
f 54//53 66//69 67//70 
s 48
f 68//71 56//57 55//55 
f 55//55 67//70 68//71 
s 121
f 69//72 57//59 56//57 
f 56//57 68//71 69//72 
s 65
f 70//73 58//73 57//59 
f 57//59 69//72 70//73 
f 71//74 59//74 58//73 
f 58//73 70//73 71//74 
f 72//75 60//62 59//74 
f 59//74 71//74 72//75 
s 64
f 62//65 50//49 60//62 
f 60//62 72//75 62//65 
s 81
f 73//76 61//64 62//65 
f 62//65 74//77 73//76 
s 241
f 75//78 63//66 61//64 
f 61//64 73//76 75//78 
s 7680
f 76//79 64//80 63//81 
f 63//81 75//82 76//79 
f 77//83 65//84 64//80 
f 64//80 76//79 77//83 
s 4
f 78//85 66//86 65//87 
f 65//87 77//88 78//85 
s 8
f 79//89 67//90 66//91 
f 66//91 78//92 79//89 
s 17
f 80//93 68//71 67//70 
f 67//70 79//94 80//93 
s 49
f 81//95 69//72 68//71 
f 68//71 80//93 81//95 
s 1920
f 82//96 70//97 69//98 
f 69//98 81//99 82//96 
f 83//100 71//101 70//97 
f 70//97 82//96 83//100 
s 4
f 84//102 72//103 71//104 
f 71//104 83//105 84//102 
s 8
f 74//106 62//107 72//108 
f 72//108 84//109 74//106 
s 292
f 85//46 73//76 74//12 
f 74//12 86//12 85//46 
s 2052
f 87//110 75//82 73//76 
f 73//76 85//46 87//110 
s 7950
f 88//33 76//79 75//82 
f 75//82 87//110 88//33 
s 5929
f 89//32 77//83 76//79 
f 76//79 88//33 89//32 
s 33
f 90//42 78//42 77//83 
f 77//83 89//32 90//42 
s 96
f 91//3 79//3 78//42 
f 78//42 90//42 91//3 
s 100
f 92//41 80//93 79//3 
f 79//3 91//3 92//41 
s 516
f 93//111 81//99 80//93 
f 80//93 92//41 93//111 
s 1998
f 94//27 82//96 81//99 
f 81//99 93//111 94//27 
s 1513
f 95//26 83//100 82//96 
f 82//96 94//27 95//26 
s 33
f 96//37 84//37 83//100 
f 83//100 95//26 96//37 
s 32
f 86//12 74//12 84//37 
f 84//37 96//37 86//12 
s 25
f 97//35 85//35 86//25 
f 86//25 98//24 97//35 
s 9
f 99//19 87//110 85//35 
f 85//35 97//35 99//19 
s 808
f 100//17 88//33 87//110 
f 87//110 99//19 100//17 
s 820
f 101//112 89//32 88//33 
f 88//33 100//17 101//112 
s 20
f 102//31 90//31 89//32 
f 89//32 101//112 102//31 
s 24
f 103//30 91//30 90//31 
f 90//31 102//31 103//30 
s 9
f 104//29 92//29 91//30 
f 91//30 103//30 104//29 
f 105//8 93//111 92//29 
f 92//29 104//29 105//8 
s 248
f 106//6 94//27 93//111 
f 93//111 105//8 106//6 
s 244
f 107//113 95//26 94//27 
f 94//27 106//6 107//113 
s 20
f 108//23 96//23 95//26 
f 95//26 107//113 108//23 
s 16
f 98//24 86//25 96//23 
f 96//23 108//23 98//24 
s 2
f 109//22 97//21 98//3 
f 98//3 110//3 109//22 
s 34
f 111//20 99//19 97//21 
f 97//21 109//22 111//20 
s 32
f 112//18 100//17 99//19 
f 99//19 111//20 112//18 
s 810
f 113//16 101//112 100//17 
f 100//17 112//18 113//16 
s 2
f 114//14 102//13 101//112 
f 101//112 113//16 114//14 
f 115//12 103//12 102//13 
f 102//13 114//14 115//12 
f 116//11 104//10 103//12 
f 103//12 115//12 116//11 
s 50
f 117//9 105//8 104//10 
f 104//10 116//11 117//9 
s 48
f 118//7 106//6 105//8 
f 105//8 117//9 118//7 
s 250
f 119//5 107//113 106//6 
f 106//6 118//7 119//5 
s 2
f 120//2 108//1 107//113 
f 107//113 119//5 120//2 
f 110//3 98//3 108//1 
f 108//1 120//2 110//3 
f 22//25 24//25 3//25 
f 20//25 22//25 3//25 
f 18//25 20//25 3//25 
f 16//25 18//25 3//25 
f 14//25 16//25 3//25 
f 12//25 14//25 3//25 
f 10//25 12//25 3//25 
f 8//25 10//25 3//25 
f 6//25 8//25 3//25 
f 2//25 6//25 3//25 
s 1
f 111//25 109//25 110//25 
f 110//25 120//25 119//25 
f 110//25 119//25 118//25 
f 110//25 118//25 117//25 
f 110//25 117//25 116//25 
f 110//25 116//25 115//25 
f 110//25 115//25 114//25 
f 110//25 114//25 113//25 
f 110//25 113//25 112//25 
f 111//25 110//25 112//25 
f 121//114 122//114 123//3 
f 123//3 124//3 121//114 
f 125//115 126//115 122//114 
f 122//114 121//114 125//115 
f 127//25 128//25 126//115 
f 126//115 125//115 127//25 
f 129//116 130//116 128//25 
f 128//25 127//25 129//116 
f 131//117 132//117 130//116 
f 130//116 129//116 131//117 
f 133//12 134//12 132//117 
f 132//117 131//117 133//12 
f 135//118 136//118 134//12 
f 134//12 133//12 135//118 
f 137//119 138//119 136//118 
f 136//118 135//118 137//119 
f 139//30 140//30 138//119 
f 138//119 137//119 139//30 
f 141//120 142//120 140//30 
f 140//30 139//30 141//120 
f 143//121 144//121 142//120 
f 142//120 141//120 143//121 
f 124//3 123//3 144//121 
f 144//121 143//121 124//3 
s 2
f 142//18 144//18 123//18 
f 140//18 142//18 123//18 
f 138//18 140//18 123//18 
f 136//18 138//18 123//18 
f 134//18 136//18 123//18 
f 132//18 134//18 123//18 
f 130//18 132//18 123//18 
f 128//18 130//18 123//18 
f 126//18 128//18 123//18 
f 122//18 126//18 123//18 
f 125//7 121//7 124//7 
f 124//7 143//7 141//7 
f 124//7 141//7 139//7 
f 124//7 139//7 137//7 
f 124//7 137//7 135//7 
f 124//7 135//7 133//7 
f 124//7 133//7 131//7 
f 124//7 131//7 129//7 
f 124//7 129//7 127//7 
f 125//7 124//7 127//7 
s 1
f 145//114 146//114 147//3 
f 147//3 148//3 145//114 
f 149//115 150//115 146//114 
f 146//114 145//114 149//115 
f 151//25 152//25 150//115 
f 150//115 149//115 151//25 
f 153//116 154//116 152//25 
f 152//25 151//25 153//116 
f 155//117 156//117 154//116 
f 154//116 153//116 155//117 
f 157//12 158//12 156//117 
f 156//117 155//117 157//12 
f 159//118 160//118 158//12 
f 158//12 157//12 159//118 
f 161//119 162//119 160//118 
f 160//118 159//118 161//119 
f 163//30 164//30 162//119 
f 162//119 161//119 163//30 
f 165//120 166//120 164//30 
f 164//30 163//30 165//120 
f 167//121 168//121 166//120 
f 166//120 165//120 167//121 
f 148//3 147//3 168//121 
f 168//121 167//121 148//3 
s 2
f 166//18 168//18 147//18 
f 164//18 166//18 147//18 
f 162//18 164//18 147//18 
f 160//18 162//18 147//18 
f 158//18 160//18 147//18 
f 156//18 158//18 147//18 
f 154//18 156//18 147//18 
f 152//18 154//18 147//18 
f 150//18 152//18 147//18 
f 146//18 150//18 147//18 
f 149//7 145//7 148//7 
f 148//7 167//7 165//7 
f 148//7 165//7 163//7 
f 148//7 163//7 161//7 
f 148//7 161//7 159//7 
f 148//7 159//7 157//7 
f 148//7 157//7 155//7 
f 148//7 155//7 153//7 
f 148//7 153//7 151//7 
f 149//7 148//7 151//7 
s 1
f 169//114 170//114 171//3 
f 171//3 172//3 169//114 
f 173//115 174//115 170//114 
f 170//114 169//114 173//115 
f 175//25 176//25 174//115 
f 174//115 173//115 175//25 
f 177//116 178//116 176//25 
f 176//25 175//25 177//116 
f 179//117 180//117 178//116 
f 178//116 177//116 179//117 
f 181//12 182//12 180//117 
f 180//117 179//117 181//12 
f 183//118 184//118 182//12 
f 182//12 181//12 183//118 
f 185//119 186//119 184//118 
f 184//118 183//118 185//119 
f 187//30 188//30 186//119 
f 186//119 185//119 187//30 
f 189//120 190//120 188//30 
f 188//30 187//30 189//120 
f 191//121 192//121 190//120 
f 190//120 189//120 191//121 
f 172//3 171//3 192//121 
f 192//121 191//121 172//3 
s 2
f 190//18 192//18 171//18 
f 188//18 190//18 171//18 
f 186//18 188//18 171//18 
f 184//18 186//18 171//18 
f 182//18 184//18 171//18 
f 180//18 182//18 171//18 
f 178//18 180//18 171//18 
f 176//18 178//18 171//18 
f 174//18 176//18 171//18 
f 170//18 174//18 171//18 
f 173//7 169//7 172//7 
f 172//7 191//7 189//7 
f 172//7 189//7 187//7 
f 172//7 187//7 185//7 
f 172//7 185//7 183//7 
f 172//7 183//7 181//7 
f 172//7 181//7 179//7 
f 172//7 179//7 177//7 
f 172//7 177//7 175//7 
f 173//7 172//7 175//7 
# 368 faces

